HIERARCHY
ROOT Hips
{
	OFFSET	0.00	0.00	0.00
	CHANNELS 6 Xposition Yposition Zposition Zrotation Xrotation Yrotation
	JOINT LeftUpLeg
	{
		OFFSET	 0.126116	-0.065224	 0.014019
		CHANNELS 3 Zrotation Xrotation Yrotation
		JOINT LeftLeg
		{
			OFFSET	 0.000000	 0.569914	 0.000000
			CHANNELS 3 Zrotation Xrotation Yrotation
			JOINT LeftFoot
			{
				OFFSET	 0.000000	 0.544423	 0.000000
				CHANNELS 3 Zrotation Xrotation Yrotation
				JOINT LeftToeBase
				{
					OFFSET	 0.000000	 0.207117	 0.000000
					CHANNELS 3 Zrotation Xrotation Yrotation
					End Site
					{
						OFFSET	 0.000000	 0.207117	 0.000000
					}
				}
			}
		}
	}
	JOINT RightUpLeg
	{
		OFFSET	-0.124023	-0.065224	 0.008373
		CHANNELS 3 Zrotation Xrotation Yrotation
		JOINT RightLeg
		{
			OFFSET	 0.000000	 0.570047	 0.000000
			CHANNELS 3 Zrotation Xrotation Yrotation
			JOINT RightFoot
			{
				OFFSET	 0.000000	 0.544354	 0.000000
				CHANNELS 3 Zrotation Xrotation Yrotation
				JOINT RightToeBase
				{
					OFFSET	 0.000000	 0.207540	 0.000000
					CHANNELS 3 Zrotation Xrotation Yrotation
					End Site
					{
						OFFSET	 0.000000	 0.207540	 0.000000
					}
				}
			}
		}
	}
	JOINT Spine
	{
		OFFSET	 0.000184	 0.117403	 0.007763
		CHANNELS 3 Zrotation Xrotation Yrotation
		JOINT Spine1
		{
			OFFSET	 0.000000	 0.137269	 0.000000
			CHANNELS 3 Zrotation Xrotation Yrotation
			JOINT Spine2
			{
				OFFSET	 0.000000	 0.156879	 0.000000
				CHANNELS 3 Zrotation Xrotation Yrotation
				JOINT LeftShoulder
				{
					OFFSET	 0.080501	 0.160143	 0.002496
					CHANNELS 3 Zrotation Xrotation Yrotation
					JOINT LeftArm
					{
						OFFSET	 0.000000	 0.164363	 0.000000
						CHANNELS 3 Zrotation Xrotation Yrotation
						JOINT LeftForeArm
						{
							OFFSET	 0.000000	 0.364576	 0.000000
							CHANNELS 3 Zrotation Xrotation Yrotation
							JOINT LeftHand
							{
								OFFSET	 0.000000	 0.360812	 0.000000
								CHANNELS 3 Zrotation Xrotation Yrotation
								JOINT LeftHandIndex1
								{
									OFFSET	 0.000000	 0.086006	 0.000000
									CHANNELS 3 Zrotation Xrotation Yrotation
									JOINT LeftHandIndex2
									{
										OFFSET	 0.000000	 0.047237	 0.000000
										CHANNELS 3 Zrotation Xrotation Yrotation
										JOINT LeftHandIndex3
										{
											OFFSET	-0.004284	 0.038165	 0.000551
											CHANNELS 3 Zrotation Xrotation Yrotation
											End Site
											{
												OFFSET	-0.004284	 0.038165	 0.000551
											}
										}
									}
								}
							}
						}
					}
				}
				JOINT Neck
				{
					OFFSET	 0.000000	 0.176489	 0.000000
					CHANNELS 3 Zrotation Xrotation Yrotation
					JOINT Head
					{
						OFFSET	 0.000000	 0.077941	 0.001747
						CHANNELS 3 Zrotation Xrotation Yrotation
						End Site
						{
							OFFSET	 0.000000	 0.077941	 0.001747
						}
					}
				}
				JOINT RightShoulder
				{
					OFFSET	-0.080363	 0.159706	-0.000306
					CHANNELS 3 Zrotation Xrotation Yrotation
					JOINT RightArm
					{
						OFFSET	 0.000000	 0.164196	 0.000000
						CHANNELS 3 Zrotation Xrotation Yrotation
						JOINT RightForeArm
						{
							OFFSET	 0.000000	 0.365611	 0.000000
							CHANNELS 3 Zrotation Xrotation Yrotation
							JOINT RightHand
							{
								OFFSET	 0.000000	 0.360648	 0.000000
								CHANNELS 3 Zrotation Xrotation Yrotation
								JOINT RightHandIndex1
								{
									OFFSET	 0.000000	 0.069977	 0.000000
									CHANNELS 3 Zrotation Xrotation Yrotation
									JOINT RightHandIndex2
									{
										OFFSET	 0.000000	 0.052305	 0.000000
										CHANNELS 3 Zrotation Xrotation Yrotation
										JOINT RightHandIndex3
										{
											OFFSET	 0.009002	 0.042196	 0.000782
											CHANNELS 3 Zrotation Xrotation Yrotation
											End Site
											{
												OFFSET	 0.009002	 0.042196	 0.000782
											}
										}
									}
								}
							}
						}
					}
				}
			}
		}
	}
}
MOTION
Frames:    6
Frame Time: 0.03333334
 0.436563	 1.273821	 0.406562	 0.550569	-2.353638	-177.254000	 176.049200	 6.024132	 12.467650	 3.434094	-12.706490	 5.969344	 5.755126	 69.698410	-1.664516	 1.292262	 28.425850	-2.713146	-178.724300	 7.963778	-10.894240	-2.362512	-12.104620	 0.786542	 1.596991	 67.827840	-6.046374	-1.288183	 28.361890	 2.710176	-0.684032	 5.996408	-7.416523	 2.283297	-4.936052	-3.747766	-1.386257	 5.668840	 11.051620	-117.459200	-0.779890	 89.958460	-0.627597	 0.825991	-7.666675	 33.788520	-2.591091	 35.492900	-32.014620	 6.338500	-8.119763	-6.580301	 5.266122	 0.000000	 0.000000	 0.000000	 0.000000	 0.000000	 0.000000	 0.000000	 4.795020	 27.116100	 1.713064	-3.831346	-16.488620	 2.982183	 116.287700	-0.440204	-90.569130	-1.010802	 4.989454	 19.100420	-26.449250	 0.608822	-57.061380	-22.307950	-20.903210	 2.848236	 15.208500	 5.323790	 0.000000	 0.000000	 0.000000	 0.000000	 0.000000	 0.000000	 0.000000
 0.436578	 1.275851	 0.406975	 0.554707	-2.499138	-177.239900	 176.080800	 6.150878	 12.464880	 3.397147	-12.574320	 5.996484	 5.657627	 69.258940	-1.605300	 1.292262	 28.425850	-2.713146	-178.741000	 8.118460	-10.864140	-2.350685	-12.045860	 0.737464	 1.493557	 67.419010	-5.907021	-1.288183	 28.361890	 2.710176	-0.688747	 6.036457	-7.398749	 2.270612	-5.058868	-3.746214	-1.370545	 5.769478	 11.030810	-117.611700	-0.826405	 89.937670	-0.966590	 0.826442	-7.370206	 34.717430	-2.653454	 35.120040	-31.942560	 6.063346	-7.833882	-6.580301	 5.266122	 0.000000	 0.000000	 0.000000	 0.000000	 0.000000	 0.000000	 0.000000	 4.901355	 27.449930	 1.624762	-3.838519	-16.683410	 3.000592	 116.528200	-0.506601	-90.546150	-0.614088	 4.990434	 18.866730	-27.552720	 0.632273	-56.744210	-22.326110	-20.491660	 2.507207	 15.208500	 5.323790	 0.000000	 0.000000	 0.000000	 0.000000	 0.000000	 0.000000	 0.000000
 0.436592	 1.277206	 0.407414	 0.558043	-2.626866	-177.227600	 176.082900	 6.310791	 12.471020	 3.394359	-12.564320	 6.026848	 5.598756	 68.998170	-1.592024	 1.292262	 28.425850	-2.713146	-178.753000	 8.261990	-10.843660	-2.343226	-12.008720	 0.693805	 1.415521	 67.137490	-5.792065	-1.288183	 28.361890	 2.710176	-0.693161	 6.082121	-7.381152	 2.256069	-5.180456	-3.744538	-1.356061	 5.893128	 11.011010	-117.746100	-0.867318	 89.919250	-1.225989	 0.876901	-7.077763	 35.477300	-2.704025	 34.795820	-31.887910	 5.769949	-7.609666	-6.580301	 5.266122	 0.000000	 0.000000	 0.000000	 0.000000	 0.000000	 0.000000	 0.000000	 4.995757	 27.743820	 1.546188	-3.845270	-16.849140	 3.016398	 116.740100	-0.564981	-90.525700	-0.336061	 5.030231	 18.667130	-28.403810	 0.650193	-56.475780	-22.344730	-20.191570	 2.146503	 15.208500	 5.323790	 0.000000	 0.000000	 0.000000	 0.000000	 0.000000	 0.000000	 0.000000
 0.436606	 1.278533	 0.407991	 0.562228	-2.776611	-177.212800	 176.081400	 6.507415	 12.482630	 3.395817	-12.569600	 6.063466	 5.541632	 68.741430	-1.591651	 1.292262	 28.425850	-2.713146	-178.764000	 8.438896	-10.822850	-2.337576	-11.980740	 0.642203	 1.334455	 66.855580	-5.663424	-1.288183	 28.361890	 2.710176	-0.698170	 6.142257	-7.359290	 2.235854	-5.321495	-3.742842	-1.337754	 6.055164	 10.986830	-117.904400	-0.915439	 89.897450	-1.511221	 0.983128	-6.704108	 36.349880	-2.761357	 34.420940	-31.844080	 5.383429	-7.377053	-6.580301	 5.266122	 0.000000	 0.000000	 0.000000	 0.000000	 0.000000	 0.000000	 0.000000	 5.107888	 28.089910	 1.452640	-3.853467	-17.040860	 3.034865	 116.989700	-0.633645	-90.501370	-0.051036	 5.120336	 18.434840	-29.342070	 0.669757	-56.171410	-22.355240	-19.884710	 1.683849	 15.208500	 5.323790	 0.000000	 0.000000	 0.000000	 0.000000	 0.000000	 0.000000	 0.000000
 0.436617	 1.279873	 0.408750	 0.567892	-2.955065	-177.195800	 176.075000	 6.753595	 12.499310	 3.403808	-12.598160	 6.108435	 5.483579	 68.482500	-1.604771	 1.292262	 28.425850	-2.713146	-178.772600	 8.661180	-10.801790	-2.335107	-11.968390	 0.580037	 1.249475	 66.565770	-5.517115	-1.288183	 28.361890	 2.710176	-0.704006	 6.219577	-7.331786	 2.208962	-5.479521	-3.740951	-1.314708	 6.258927	 10.957330	-118.093000	-0.972728	 89.871290	-1.833220	 1.165297	-6.222332	 37.375730	-2.828048	 33.984200	-31.822820	 4.875217	-7.142355	-6.580301	 5.266122	 0.000000	 0.000000	 0.000000	 0.000000	 0.000000	 0.000000	 0.000000	 5.242881	 28.502290	 1.339715	-3.863440	-17.266270	 3.056951	 117.287300	-0.715368	-90.471920	 0.246949	 5.283311	 18.158870	-30.403980	 0.691730	-55.824490	-22.347510	-19.570480	 1.097140	 15.208500	 5.323790	 0.000000	 0.000000	 0.000000	 0.000000	 0.000000	 0.000000	 0.000000
 0.436624	 1.281145	 0.409666	 0.575186	-3.151561	-177.176300	 176.062700	 7.039510	 12.521530	 3.420103	-12.656430	 6.159678	 5.426391	 68.238560	-1.630310	 1.292262	 28.425850	-2.713146	-178.777100	 8.919259	-10.780870	-2.337083	-11.978250	 0.510846	 1.166645	 66.285910	-5.361587	-1.288183	 28.361890	 2.710176	-0.710067	 6.310071	-7.300464	 2.176047	-5.633977	-3.739766	-1.287398	 6.487916	 10.924170	-118.301900	-1.036052	 89.842130	-2.167299	 1.426453	-5.647519	 38.494890	-2.899665	 33.513070	-31.836300	 4.258064	-6.933370	-6.580301	 5.266122	 0.000000	 0.000000	 0.000000	 0.000000	 0.000000	 0.000000	 0.000000	 5.394076	 28.958660	 1.212847	-3.874642	-17.513290	 3.081498	 117.616800	-0.805656	-90.438840	 0.533309	 5.526410	 17.852450	-31.524110	 0.714711	-55.459540	-22.314500	-19.278850	 0.414794	 15.208500	 5.323790	 0.000000	 0.000000	 0.000000	 0.000000	 0.000000	 0.000000	 0.000000
